<?xml version="1.0" encoding="utf-8"?>
<!-- Generator: Adobe Illustrator 25.4.1, SVG Export Plug-In . SVG Version: 6.00 Build 0)  -->
<svg version="1.1" id="Lager_1" xmlns="http://www.w3.org/2000/svg" xmlns:xlink="http://www.w3.org/1999/xlink" x="0px" y="0px"
	 viewBox="0 0 179 129" style="enable-background:new 0 0 179 129;" xml:space="preserve">
<style type="text/css">
	.st0{fill:#FFFFFF;}
</style>
<g>
	<g>
		<g>
			<path class="st0" d="M148.21,14.01L130.9,89.13h-13.33c-5.21-17.7-10.41-35.39-15.62-53.09C100.4,44.98,90.3,89.13,90.3,89.13
				H76.98L67.9,49.71l-3.32-13.06L50.63,89.13H37.3L19.99,14.01h14.58l9.65,50.11l14.36-50.11h15.66c0,0,9.66,48.54,10.08,49.94
				c1.38-6.34,2.81-12.73,4.3-19.18c2.41-10.45,4.9-20.71,7.46-30.78c4.52,0,9.03,0.01,13.55,0.01l14.36,50.11l9.65-50.11H148.21z"
				/>
		</g>
		<g>
			<polyline class="st0" points="67.9,49.71 64.58,36.64 50.63,89.13 37.3,89.13 19.99,14.01 34.57,14.01 44.22,64.12 58.58,14.01 
							"/>
		</g>
		<path class="st0" d="M96.08,14c1.96,7.35,3.92,14.69,5.88,22.04c-3.92,17.63-7.84,35.27-11.76,52.9
			c-1.96-8.33-3.92-16.65-5.88-24.98C88.24,47.31,92.16,30.65,96.08,14z"/>
	</g>
	<rect x="146.77" y="77.13" class="st0" width="12" height="12"/>
</g>
<g>
	<path class="st0" d="M33.15,100.55l-3.36,12.66h-3.27l-1.77-6.99l-1.67,6.99h-3.4l-3.36-12.66h3.66l1.77,7.29l1.73-7.29h3.05
		l1.88,7.3l1.77-7.3H33.15z"/>
	<path class="st0" d="M45.48,103.59v9.63H41.8v-9.63h-2.63v-3.03h8.93v3.03H45.48z"/>
	<path class="st0" d="M59.31,110.19v3.02h-9.53v-12.66h9.53v2.92h-5.71v1.84h4.62v2.81h-4.62v2.07H59.31z"/>
	<path class="st0" d="M68.38,108.38l3.55,0.21c-0.17,1.55-0.74,2.74-1.72,3.57c-0.98,0.83-2.18,1.24-3.61,1.24
		c-1.72,0-3.11-0.57-4.17-1.71c-1.06-1.14-1.59-2.71-1.59-4.71c0-1.99,0.5-3.59,1.5-4.81c1-1.22,2.4-1.83,4.19-1.83
		c1.68,0,2.96,0.46,3.86,1.39c0.9,0.93,1.41,2.16,1.53,3.69l-3.63,0.19c0-0.85-0.16-1.46-0.49-1.84c-0.32-0.38-0.71-0.57-1.15-0.57
		c-1.22,0-1.84,1.23-1.84,3.69c0,1.38,0.16,2.32,0.48,2.81c0.32,0.5,0.77,0.74,1.34,0.74C67.68,110.48,68.26,109.78,68.38,108.38z"
		/>
	<path class="st0" d="M84.67,100.55v12.66h-3.89v-4.93h-2.97v4.93h-3.89v-12.66h3.89v4.66h2.97v-4.66H84.67z"/>
	<path class="st0" d="M98.26,113.22H95.1l-3.47-5.6c-0.45-0.72-0.89-1.59-1.35-2.62c0.2,0.82,0.31,1.51,0.31,2.08v6.13h-3.15v-12.66
		h3.67l2.95,4.64c0.59,0.92,1.03,1.73,1.34,2.43c-0.2-1.08-0.3-2.19-0.3-3.32v-3.75h3.16V113.22z"/>
	<path class="st0" d="M106.52,113.41c-1.78,0-3.23-0.59-4.36-1.77c-1.12-1.18-1.68-2.76-1.68-4.74c0-1.89,0.54-3.46,1.61-4.69
		c1.07-1.23,2.56-1.85,4.47-1.85c1.76,0,3.2,0.58,4.31,1.74c1.11,1.16,1.67,2.72,1.67,4.66c0,2.01-0.56,3.62-1.68,4.83
		C109.73,112.81,108.28,113.41,106.52,113.41z M106.5,110.54c0.66,0,1.13-0.29,1.41-0.86c0.29-0.57,0.43-1.62,0.43-3.14
		c0-2.2-0.59-3.3-1.77-3.3c-1.27,0-1.91,1.26-1.91,3.77C104.66,109.36,105.27,110.54,106.5,110.54z"/>
	<path class="st0" d="M123.62,110.11v3.11h-8.88v-12.66h3.89v9.56H123.62z"/>
	<path class="st0" d="M130.85,113.41c-1.78,0-3.23-0.59-4.36-1.77c-1.12-1.18-1.68-2.76-1.68-4.74c0-1.89,0.54-3.46,1.61-4.69
		c1.07-1.23,2.56-1.85,4.47-1.85c1.76,0,3.2,0.58,4.31,1.74c1.11,1.16,1.67,2.72,1.67,4.66c0,2.01-0.56,3.62-1.68,4.83
		C134.06,112.81,132.62,113.41,130.85,113.41z M130.83,110.54c0.66,0,1.13-0.29,1.41-0.86c0.29-0.57,0.43-1.62,0.43-3.14
		c0-2.2-0.59-3.3-1.77-3.3c-1.27,0-1.91,1.26-1.91,3.77C128.99,109.36,129.61,110.54,130.83,110.54z"/>
	<path class="st0" d="M150.01,106.12v7.1h-1.9c-0.15-0.53-0.32-0.97-0.51-1.33c-0.79,1.01-1.95,1.52-3.49,1.52
		c-1.63,0-2.98-0.57-4.03-1.71c-1.05-1.14-1.58-2.69-1.58-4.63c0-1.89,0.51-3.48,1.53-4.77c1.02-1.29,2.53-1.93,4.54-1.93
		c1.51,0,2.72,0.38,3.65,1.15c0.92,0.77,1.52,1.86,1.79,3.27l-3.77,0.37c-0.19-1.32-0.76-1.98-1.73-1.98
		c-1.27,0-1.91,1.21-1.91,3.64c0,1.47,0.21,2.43,0.61,2.9c0.41,0.47,0.9,0.7,1.48,0.7c0.47,0,0.87-0.14,1.2-0.43
		c0.33-0.28,0.5-0.67,0.51-1.17h-2.1v-2.69H150.01z"/>
	<path class="st0" d="M162.46,100.55l-3.96,7.3v5.36h-3.78v-5.36l-4.26-7.3h4.25l2.22,4.17l2.13-4.17H162.46z"/>
</g>
</svg>
